<?xml version="1.0" encoding="utf-8" ?>	<!-- Generator: Assembly 2.4 - http://assemblyapp.co -->	<svg version="1.1" xmlns="http://www.w3.org/2000/svg" xmlns:xlink="http://www.w3.org/1999/xlink" width="128.00" height="128.00" viewBox="0 0 128.0 128.0">		<g id="document" transform="scale(0.03125 0.03125) translate(2048.0 2048.0)">			<path d="M819.13,-223.29 C216.374,-223.29 -278.195,-717.858 -278.195,-1324.48 C-278.195,-1564.03 -181.6,-1757.23 -73.4126,-1931.1 C-1105.05,-1900.19 -1931.91,-1054.01 -1931.91,0.812046 C-1931.91,1071.09 -1074.14,1932.72 -7.72764,1932.72 C1058.69,1932.72 1931.91,1071.09 1931.91,0.812046 C1931.91,-269.655 1870.09,-540.123 1773.49,-764.224 C1564.85,-447.391 1232.56,-223.29 819.13,-223.29 Z M751.1,-1956.61 C751.1,-1504.88 383.145,-1140.21 -65.2995,-1140.21 C384.788,-1140.21 751.1,-775.541 751.1,-323.811 C751.1,-775.541 1115.77,-1140.21 1565.86,-1140.21 C1114.13,-1140.21 751.1,-1504.88 751.1,-1956.61 Z " fill="#6315ff" fill-opacity="1.00" />		</g>	</svg>